<svg xmlns="http://www.w3.org/2000/svg" viewBox="-24 -24 1618 524" width="1618" height="524" data-openflowkit-document="template-request-sequence" data-page="page-1" data-theme="light" data-pixel-ratio="1"><g data-connector-id="msg-1"><path d="M140 108 L392 108" fill="none" stroke="#64748b" stroke-width="1.75" opacity="1"/><rect x="219.24" y="92" width="93.52" height="20" rx="4" fill="#ffffff" stroke="#e2e8f0" stroke-width="1"/><text x="266" y="102" text-anchor="middle" dominant-baseline="middle" fill="#334155" font-family="Inter, ui-sans-serif, system-ui, sans-serif" font-size="12" font-weight="500">POST /orders</text><path d="M392 108 L382.796 112.067 L383.224 103.077 Z" fill="#64748b" opacity="1"/></g><g data-connector-id="msg-2"><path d="M392 160 L644 160" fill="none" stroke="#64748b" stroke-width="1.75" opacity="1"/><rect x="471.24" y="138" width="93.52" height="20" rx="4" fill="#ffffff" stroke="#e2e8f0" stroke-width="1"/><text x="518" y="148" text-anchor="middle" dominant-baseline="middle" fill="#334155" font-family="Inter, ui-sans-serif, system-ui, sans-serif" font-size="12" font-weight="500">order.create</text><path d="M644 160 L634.614 163.626 L635.467 154.667 Z" fill="#64748b" opacity="1"/></g><g data-connector-id="msg-3"><path d="M644 212 L392 212" fill="none" stroke="#64748b" stroke-width="1.75" opacity="1" stroke-dasharray="10 6"/><rect x="502.56" y="202" width="30.88" height="20" rx="4" fill="#ffffff" stroke="#e2e8f0" stroke-width="1"/><text x="518" y="212" text-anchor="middle" dominant-baseline="middle" fill="#334155" font-family="Inter, ui-sans-serif, system-ui, sans-serif" font-size="12" font-weight="500">202</text><path d="M401 207.5 L392 212 L401 216.5" fill="none" stroke="#64748b" stroke-width="1.75" opacity="1" stroke-linejoin="round"/></g><g data-connector-id="msg-4"><path d="M644 264 L392 264" fill="none" stroke="#64748b" stroke-width="1.75" opacity="1" stroke-dasharray="10 6"/><rect x="502.56" y="266" width="30.88" height="20" rx="4" fill="#ffffff" stroke="#e2e8f0" stroke-width="1"/><text x="518" y="276" text-anchor="middle" dominant-baseline="middle" fill="#334155" font-family="Inter, ui-sans-serif, system-ui, sans-serif" font-size="12" font-weight="500">409</text><path d="M401.386 260.374 L392 264 L400.533 269.333" fill="none" stroke="#64748b" stroke-width="1.75" opacity="1" stroke-linejoin="round"/></g><g data-connector-id="msg-5"><path d="M392 316 L140 316" fill="none" stroke="#64748b" stroke-width="1.75" opacity="1" stroke-dasharray="10 6"/><rect x="233.16" y="312" width="65.68" height="20" rx="4" fill="#ffffff" stroke="#e2e8f0" stroke-width="1"/><text x="266" y="322" text-anchor="middle" dominant-baseline="middle" fill="#334155" font-family="Inter, ui-sans-serif, system-ui, sans-serif" font-size="12" font-weight="500">response</text><path d="M149.204 311.933 L140 316 L148.776 320.923" fill="none" stroke="#64748b" stroke-width="1.75" opacity="1" stroke-linejoin="round"/></g><g data-node-id="dsl-485r0" transform="matrix(1 0 0 1 0 0)"><rect x="0" y="0" width="1570" height="476" rx="12" fill="rgba(241,245,249,0.52)" stroke="#cbd5e1" stroke-width="1.5"/><g><text x="16" y="20" text-anchor="start" dominant-baseline="middle" fill="#334155" font-family="Inter, ui-sans-serif, system-ui, sans-serif" font-size="14" font-weight="700">Request lifecycle</text></g></g><g data-node-id="alt-1" data-node-kind="annotation" transform="matrix(1 0 0 1 16 168)"><rect width="1498" height="88" rx="8" fill="#f5f3ff" stroke="#9970f7" stroke-width="1.5"/><path d="M1470 88 L1498 60 L1498 88 Z" fill="#f0edfe" stroke="#a27df8"/><text x="12" y="22" fill="#5520ab" font-family="system-ui,sans-serif" font-size="14" font-weight="700"><tspan x="12" dy="0">ALT</tspan></text><text x="12" y="46" fill="#6226c4" font-family="system-ui,sans-serif" font-size="12" font-weight="500"><tspan x="12" dy="0">accepted</tspan></text></g><g data-node-id="alt-2" data-node-kind="annotation" transform="matrix(1 0 0 1 16 220)"><rect width="1498" height="88" rx="8" fill="#f5f3ff" stroke="#9970f7" stroke-width="1.5"/><path d="M1470 88 L1498 60 L1498 88 Z" fill="#f0edfe" stroke="#a27df8"/><text x="12" y="22" fill="#5520ab" font-family="system-ui,sans-serif" font-size="14" font-weight="700"><tspan x="12" dy="0">ELSE</tspan></text><text x="12" y="46" fill="#6226c4" font-family="system-ui,sans-serif" font-size="12" font-weight="500"><tspan x="12" dy="0">rejected</tspan></text></g><g data-node-id="browser" transform="matrix(1 0 0 1 56 40)"><rect x="0" y="0" width="168" height="412" fill="#ffffff" stroke="#cbd5e1" stroke-width="1.5"/><g><text x="84" y="206" text-anchor="middle" dominant-baseline="middle" fill="#0f172a" font-family="Inter, ui-sans-serif, system-ui, sans-serif" font-size="14" font-weight="600">Browser</text></g></g><g data-node-id="end" transform="matrix(1 0 0 1 1316 40)"><rect x="0" y="0" width="168" height="412" fill="#ffffff" stroke="#cbd5e1" stroke-width="1.5"/><g><text x="84" y="206" text-anchor="middle" dominant-baseline="middle" fill="#0f172a" font-family="Inter, ui-sans-serif, system-ui, sans-serif" font-size="14" font-weight="600">end</text></g></g><g data-node-id="gateway" transform="matrix(1 0 0 1 308 40)"><rect x="0" y="0" width="168" height="412" fill="#ffffff" stroke="#cbd5e1" stroke-width="1.5"/><g><text x="84" y="206" text-anchor="middle" dominant-baseline="middle" fill="#0f172a" font-family="Inter, ui-sans-serif, system-ui, sans-serif" font-size="14" font-weight="600">Gateway</text></g></g><g data-node-id="orderid" transform="matrix(1 0 0 1 812 40)"><rect x="0" y="0" width="168" height="412" fill="#ffffff" stroke="#cbd5e1" stroke-width="1.5"/><g><text x="84" y="206" text-anchor="middle" dominant-baseline="middle" fill="#0f172a" font-family="Inter, ui-sans-serif, system-ui, sans-serif" font-size="14" font-weight="600">orderId</text></g></g><g data-node-id="reason" transform="matrix(1 0 0 1 1064 40)"><rect x="0" y="0" width="168" height="412" fill="#ffffff" stroke="#cbd5e1" stroke-width="1.5"/><g><text x="84" y="206" text-anchor="middle" dominant-baseline="middle" fill="#0f172a" font-family="Inter, ui-sans-serif, system-ui, sans-serif" font-size="14" font-weight="600">reason</text></g></g><g data-node-id="service" transform="matrix(1 0 0 1 560 40)"><rect x="0" y="0" width="168" height="412" fill="#ffffff" stroke="#cbd5e1" stroke-width="1.5"/><g><text x="84" y="206" text-anchor="middle" dominant-baseline="middle" fill="#0f172a" font-family="Inter, ui-sans-serif, system-ui, sans-serif" font-size="14" font-weight="600">Service</text></g></g></svg>